<?xml version="1.0" encoding="utf-8"?>
<!-- Generator: Adobe Illustrator 18.1.1, SVG Export Plug-In . SVG Version: 6.00 Build 0)  -->
<svg version="1.1" id="Layer_1" xmlns:sketch="http://www.bohemiancoding.com/sketch/ns"
	 xmlns="http://www.w3.org/2000/svg" xmlns:xlink="http://www.w3.org/1999/xlink" x="0px" y="0px" viewBox="-379 277 32 60"
	 enable-background="new -379 277 32 60" xml:space="preserve">
<title>icon-3</title>
<desc>Created with Sketch.</desc>
<g>
	<g>
		<g>
			<path fill="#602D91" d="M-363,282.1c-0.7,0-1.3-0.6-1.3-1.3c0-0.7,0.6-1.3,1.3-1.3c0.7,0,1.3,0.6,1.3,1.3
				C-361.7,281.5-362.3,282.1-363,282.1z M-363,280.1c-0.4,0-0.7,0.3-0.7,0.7s0.3,0.7,0.7,0.7s0.7-0.3,0.7-0.7
				S-362.7,280.1-363,280.1z"/>
			<path fill="#602D91" d="M-366.2,282.6c-0.7,0-1.3-0.6-1.3-1.3c0-0.7,0.6-1.3,1.3-1.3c0.7,0,1.3,0.6,1.3,1.3
				C-364.9,282.1-365.4,282.6-366.2,282.6z M-366.2,280.7c-0.4,0-0.7,0.3-0.7,0.7s0.3,0.7,0.7,0.7c0.4,0,0.7-0.3,0.7-0.7
				S-365.8,280.7-366.2,280.7z"/>
			<path fill="#602D91" d="M-368.9,284.2c-0.7,0-1.3-0.6-1.3-1.3c0-0.7,0.6-1.3,1.3-1.3c0.7,0,1.3,0.6,1.3,1.3
				C-367.6,283.7-368.2,284.2-368.9,284.2z M-368.9,282.3c-0.4,0-0.7,0.3-0.7,0.7c0,0.4,0.3,0.7,0.7,0.7s0.7-0.3,0.7-0.7
				C-368.2,282.6-368.5,282.3-368.9,282.3z"/>
			<path fill="#602D91" d="M-370.9,286.6c-0.7,0-1.3-0.6-1.3-1.3c0-0.7,0.6-1.3,1.3-1.3c0.7,0,1.3,0.6,1.3,1.3
				C-369.6,286.1-370.2,286.6-370.9,286.6z M-370.9,284.7c-0.4,0-0.7,0.3-0.7,0.7s0.3,0.7,0.7,0.7s0.7-0.3,0.7-0.7
				S-370.6,284.7-370.9,284.7z"/>
			<path fill="#602D91" d="M-368.6,304.3h-8.5v-6c-1.2-1.3-1.9-3-1.9-4.8c0-3.8,3.1-6.8,6.8-6.8c3.7,0,6.7,3,6.8,6.7l1.7,4.4l-0.4,0
				c0,0-0.5,0-0.9,0h-0.7l0,4.3l-0.3,0c0,0-1,0-2.6,0V304.3z M-376.4,303.7h7.2v-2.3h0.3c1.2,0,2.2,0,2.6,0l0-4.3h1.3
				c0.1,0,0.3,0,0.4,0l-1.4-3.7l0-0.1c-0.1-3.4-2.8-6.1-6.2-6.1c-3.4,0-6.2,2.8-6.2,6.2c0,1.7,0.7,3.3,1.9,4.5l0.1,0.1V303.7z"/>
			<path fill="#602D91" d="M-359.9,282.6c-0.7,0-1.3-0.6-1.3-1.3c0-0.7,0.6-1.3,1.3-1.3c0.7,0,1.3,0.6,1.3,1.3
				C-358.6,282.1-359.2,282.6-359.9,282.6z M-359.9,280.7c-0.4,0-0.7,0.3-0.7,0.7s0.3,0.7,0.7,0.7s0.7-0.3,0.7-0.7
				S-359.5,280.7-359.9,280.7z"/>
			<path fill="#602D91" d="M-357.2,284.2c-0.7,0-1.3-0.6-1.3-1.3c0-0.7,0.6-1.3,1.3-1.3c0.7,0,1.3,0.6,1.3,1.3
				C-355.9,283.7-356.5,284.2-357.2,284.2z M-357.2,282.3c-0.4,0-0.7,0.3-0.7,0.7c0,0.4,0.3,0.7,0.7,0.7s0.7-0.3,0.7-0.7
				C-356.5,282.6-356.8,282.3-357.2,282.3z"/>
			<path fill="#602D91" d="M-355.1,286.6c-0.7,0-1.3-0.6-1.3-1.3c0-0.7,0.6-1.3,1.3-1.3c0.7,0,1.3,0.6,1.3,1.3
				C-353.8,286.1-354.4,286.6-355.1,286.6z M-355.1,284.7c-0.4,0-0.7,0.3-0.7,0.7s0.3,0.7,0.7,0.7c0.4,0,0.7-0.3,0.7-0.7
				S-354.8,284.7-355.1,284.7z"/>
			<path fill="#602D91" d="M-348.9,304.3h-8.5V302c-1.6,0-2.7,0-2.7,0l-0.3,0l0-4.3h-0.7c-0.4,0-1,0-1,0l-0.5,0l1.8-4.5
				c0.1-3.7,3.2-6.7,6.8-6.7c3.8,0,6.8,3.1,6.8,6.8c0,1.8-0.7,3.5-1.9,4.8V304.3z M-356.8,303.7h7.2V298l0.1-0.1
				c1.2-1.2,1.9-2.7,1.9-4.5c0-3.4-2.8-6.2-6.2-6.2c-3.4,0-6.2,2.7-6.2,6.1l0,0.1l-1.5,3.7c0.2,0,0.4,0,0.6,0h1.3l0,4.3
				c0.5,0,1.4,0,2.7,0h0.3V303.7z"/>
		</g>
		<path fill="#602D91" d="M-353.8,296.1c-0.5,0-1-0.4-1-1s0.4-1,1-1s1,0.4,1,1C-352.9,295.7-353.3,296.1-353.8,296.1z"/>
		<path fill="#602D91" d="M-353.8,293.5c-0.5,0-1-0.4-1-1c0-0.5,0.4-1,1-1s1,0.4,1,1C-352.9,293.1-353.3,293.5-353.8,293.5z"/>
		<path fill="#602D91" d="M-353.8,290.9c-0.5,0-1-0.4-1-1s0.4-1,1-1s1,0.4,1,1S-353.3,290.9-353.8,290.9z"/>
		<path fill="#602D91" d="M-374.8,296.1c-0.5,0-1-0.4-1-1s0.4-1,1-1c0.5,0,1,0.4,1,1C-373.8,295.7-374.3,296.1-374.8,296.1z"/>
		<path fill="#602D91" d="M-374.8,293.5c-0.5,0-1-0.4-1-1c0-0.5,0.4-1,1-1c0.5,0,1,0.4,1,1C-373.8,293.1-374.3,293.5-374.8,293.5z"
			/>
		<path fill="#602D91" d="M-372.2,296.1c-0.5,0-1-0.4-1-1s0.4-1,1-1c0.5,0,1,0.4,1,1C-371.2,295.7-371.6,296.1-372.2,296.1z"/>
		<path fill="#602D91" d="M-372.2,293.5c-0.5,0-1-0.4-1-1c0-0.5,0.4-1,1-1c0.5,0,1,0.4,1,1C-371.2,293.1-371.6,293.5-372.2,293.5z"
			/>
		<path fill="#602D91" d="M-372.2,290.9c-0.5,0-1-0.4-1-1s0.4-1,1-1c0.5,0,1,0.4,1,1C-371.2,290.4-371.6,290.9-372.2,290.9z"/>
		<path fill="#602D91" d="M-369.5,296.1c-0.5,0-1-0.4-1-1s0.4-1,1-1c0.5,0,1,0.4,1,1C-368.6,295.7-369,296.1-369.5,296.1z"/>
		<path fill="#602D91" d="M-369.5,293.5c-0.5,0-1-0.4-1-1c0-0.5,0.4-1,1-1c0.5,0,1,0.4,1,1C-368.6,293.1-369,293.5-369.5,293.5z"/>
	</g>
</g>
<g>
	<g>
		<path fill="#FFFFFF" d="M-363,314.8c-0.7,0-1.3-0.6-1.3-1.3c0-0.7,0.6-1.3,1.3-1.3c0.7,0,1.3,0.6,1.3,1.3
			C-361.7,314.2-362.3,314.8-363,314.8z M-363,312.8c-0.4,0-0.7,0.3-0.7,0.7s0.3,0.7,0.7,0.7s0.7-0.3,0.7-0.7
			S-362.7,312.8-363,312.8z"/>
		<path fill="#FFFFFF" d="M-366.2,315.3c-0.7,0-1.3-0.6-1.3-1.3c0-0.7,0.6-1.3,1.3-1.3c0.7,0,1.3,0.6,1.3,1.3
			C-364.9,314.8-365.4,315.3-366.2,315.3z M-366.2,313.4c-0.4,0-0.7,0.3-0.7,0.7s0.3,0.7,0.7,0.7c0.4,0,0.7-0.3,0.7-0.7
			S-365.8,313.4-366.2,313.4z"/>
		<path fill="#FFFFFF" d="M-368.9,316.9c-0.7,0-1.3-0.6-1.3-1.3c0-0.7,0.6-1.3,1.3-1.3c0.7,0,1.3,0.6,1.3,1.3
			C-367.6,316.4-368.2,316.9-368.9,316.9z M-368.9,315c-0.4,0-0.7,0.3-0.7,0.7s0.3,0.7,0.7,0.7s0.7-0.3,0.7-0.7
			S-368.5,315-368.9,315z"/>
		<path fill="#FFFFFF" d="M-370.9,319.4c-0.7,0-1.3-0.6-1.3-1.3c0-0.7,0.6-1.3,1.3-1.3c0.7,0,1.3,0.6,1.3,1.3
			C-369.6,318.8-370.2,319.4-370.9,319.4z M-370.9,317.4c-0.4,0-0.7,0.3-0.7,0.7s0.3,0.7,0.7,0.7s0.7-0.3,0.7-0.7
			S-370.6,317.4-370.9,317.4z"/>
		<path fill="#FFFFFF" d="M-368.6,337h-8.5v-6c-1.2-1.3-1.9-3-1.9-4.8c0-3.8,3.1-6.8,6.8-6.8c3.7,0,6.7,3,6.8,6.7l1.7,4.4l-0.4,0
			c0,0-0.5,0-0.9,0h-0.7l0,4.3l-0.3,0c0,0-1,0-2.6,0V337z M-376.4,336.4h7.2v-2.3h0.3c1.2,0,2.2,0,2.6,0l0-4.3h1.3
			c0.1,0,0.3,0,0.4,0l-1.4-3.7l0-0.1c-0.1-3.4-2.8-6.1-6.2-6.1c-3.4,0-6.2,2.8-6.2,6.2c0,1.7,0.7,3.3,1.9,4.5l0.1,0.1V336.4z"/>
		<path fill="#FFFFFF" d="M-359.9,315.3c-0.7,0-1.3-0.6-1.3-1.3c0-0.7,0.6-1.3,1.3-1.3c0.7,0,1.3,0.6,1.3,1.3
			C-358.6,314.8-359.2,315.3-359.9,315.3z M-359.9,313.4c-0.4,0-0.7,0.3-0.7,0.7s0.3,0.7,0.7,0.7s0.7-0.3,0.7-0.7
			S-359.5,313.4-359.9,313.4z"/>
		<path fill="#FFFFFF" d="M-357.2,316.9c-0.7,0-1.3-0.6-1.3-1.3c0-0.7,0.6-1.3,1.3-1.3c0.7,0,1.3,0.6,1.3,1.3
			C-355.9,316.4-356.5,316.9-357.2,316.9z M-357.2,315c-0.4,0-0.7,0.3-0.7,0.7s0.3,0.7,0.7,0.7s0.7-0.3,0.7-0.7
			S-356.8,315-357.2,315z"/>
		<path fill="#FFFFFF" d="M-355.1,319.4c-0.7,0-1.3-0.6-1.3-1.3c0-0.7,0.6-1.3,1.3-1.3c0.7,0,1.3,0.6,1.3,1.3
			C-353.8,318.8-354.4,319.4-355.1,319.4z M-355.1,317.4c-0.4,0-0.7,0.3-0.7,0.7s0.3,0.7,0.7,0.7c0.4,0,0.7-0.3,0.7-0.7
			S-354.8,317.4-355.1,317.4z"/>
		<path fill="#FFFFFF" d="M-348.9,337h-8.5v-2.3c-1.6,0-2.7,0-2.7,0l-0.3,0l0-4.3h-0.7c-0.4,0-1,0-1,0l-0.5,0l1.8-4.5
			c0.1-3.7,3.2-6.7,6.8-6.7c3.8,0,6.8,3.1,6.8,6.8c0,1.8-0.7,3.5-1.9,4.8V337z M-356.8,336.4h7.2v-5.6l0.1-0.1
			c1.2-1.2,1.9-2.7,1.9-4.5c0-3.4-2.8-6.2-6.2-6.2c-3.4,0-6.2,2.7-6.2,6.1l0,0.1l-1.5,3.7c0.2,0,0.4,0,0.6,0h1.3l0,4.3
			c0.5,0,1.4,0,2.7,0h0.3V336.4z"/>
	</g>
	<path fill="#FFFFFF" d="M-353.8,328.8c-0.5,0-1-0.4-1-1c0-0.5,0.4-1,1-1s1,0.4,1,1C-352.9,328.4-353.3,328.8-353.8,328.8z"/>
	<path fill="#FFFFFF" d="M-353.8,326.2c-0.5,0-1-0.4-1-1s0.4-1,1-1s1,0.4,1,1S-353.3,326.2-353.8,326.2z"/>
	<path fill="#FFFFFF" d="M-353.8,323.6c-0.5,0-1-0.4-1-1s0.4-1,1-1s1,0.4,1,1C-352.9,323.2-353.3,323.6-353.8,323.6z"/>
	<path fill="#FFFFFF" d="M-374.8,328.8c-0.5,0-1-0.4-1-1c0-0.5,0.4-1,1-1c0.5,0,1,0.4,1,1C-373.8,328.4-374.3,328.8-374.8,328.8z"/>
	<path fill="#FFFFFF" d="M-374.8,326.2c-0.5,0-1-0.4-1-1s0.4-1,1-1c0.5,0,1,0.4,1,1S-374.3,326.2-374.8,326.2z"/>
	<path fill="#FFFFFF" d="M-372.2,328.8c-0.5,0-1-0.4-1-1c0-0.5,0.4-1,1-1c0.5,0,1,0.4,1,1C-371.2,328.4-371.6,328.8-372.2,328.8z"/>
	<path fill="#FFFFFF" d="M-372.2,326.2c-0.5,0-1-0.4-1-1s0.4-1,1-1c0.5,0,1,0.4,1,1S-371.6,326.2-372.2,326.2z"/>
	<path fill="#FFFFFF" d="M-372.2,323.6c-0.5,0-1-0.4-1-1s0.4-1,1-1c0.5,0,1,0.4,1,1C-371.2,323.2-371.6,323.6-372.2,323.6z"/>
	<path fill="#FFFFFF" d="M-369.5,328.8c-0.5,0-1-0.4-1-1c0-0.5,0.4-1,1-1c0.5,0,1,0.4,1,1C-368.6,328.4-369,328.8-369.5,328.8z"/>
	<path fill="#FFFFFF" d="M-369.5,326.2c-0.5,0-1-0.4-1-1s0.4-1,1-1c0.5,0,1,0.4,1,1S-369,326.2-369.5,326.2z"/>
</g>
</svg>
