<?xml version="1.0" encoding="utf-8"?>
<!-- Generator: Adobe Illustrator 18.1.1, SVG Export Plug-In . SVG Version: 6.00 Build 0)  -->
<svg version="1.1" id="Layer_1" xmlns:sketch="http://www.bohemiancoding.com/sketch/ns"
	 xmlns="http://www.w3.org/2000/svg" xmlns:xlink="http://www.w3.org/1999/xlink" x="0px" y="0px" viewBox="-379 276 32 62"
	 enable-background="new -379 276 32 62" xml:space="preserve">
<title>icon-4</title>
<desc>Created with Sketch.</desc>
<g>
	<g>
		<path fill="#FFFFFF" d="M-364,313c-0.6,0-1-0.5-1-1v-3c0-0.6,0.5-1,1-1c0.6,0,1,0.5,1,1v3C-362.9,312.5-363.4,313-364,313z
			 M-364,308.7c-0.1,0-0.2,0.1-0.2,0.2v3c0,0.1,0.1,0.2,0.2,0.2c0.1,0,0.2-0.1,0.2-0.2v-3C-363.8,308.8-363.8,308.7-364,308.7z"/>
		<path fill="#FFFFFF" d="M-358.5,314.8c-0.1,0-0.4,0-0.6-0.2c-0.2-0.2-0.3-0.4-0.4-0.7c0-0.3,0-0.5,0.2-0.8l1.8-2.4
			c0.3-0.4,1-0.5,1.4-0.2c0.5,0.4,0.5,1,0.2,1.4l-1.9,2.5C-357.9,314.7-358.2,314.8-358.5,314.8z M-356.6,311.2
			c-0.1,0-0.1,0-0.2,0.1l-1.8,2.4c0,0,0,0.1,0,0.1c0,0.1,0,0.1,0.1,0.1l0,0c0,0,0,0,0.1,0c0,0,0.1,0,0.2-0.1l1.8-2.4
			c0.1-0.1,0-0.2,0-0.3C-356.5,311.2-356.6,311.2-356.6,311.2z"/>
		<path fill="#FFFFFF" d="M-370.1,314.8c-0.3,0-0.6-0.2-0.8-0.4l-1.9-2.4c-0.3-0.4-0.3-1.1,0.2-1.4c0.4-0.3,1.1-0.2,1.4,0.2l1.8,2.4
			c0.2,0.2,0.2,0.5,0.2,0.8c0,0.3-0.2,0.5-0.4,0.7C-369.7,314.8-369.9,314.8-370.1,314.8z M-371.9,311.2c0,0-0.1,0-0.1,0
			c-0.1,0.1-0.1,0.2,0,0.3l1.8,2.4c0,0,0.1,0.1,0.2,0.1c0,0,0.1,0,0.1,0c0,0,0-0.1,0.1-0.1c0,0,0-0.1,0-0.1l-1.8-2.4
			C-371.8,311.2-371.9,311.2-371.9,311.2z"/>
		<path fill="#FFFFFF" d="M-374.4,319.1c-0.2,0-0.3,0-0.4-0.1l-0.1,0l-2.4-1.2c-0.2-0.1-0.4-0.3-0.5-0.6c-0.1-0.3-0.1-0.5,0.1-0.8
			c0.2-0.3,0.5-0.6,0.9-0.6c0.2,0,0.3,0,0.5,0.1l2.4,1.2c0.5,0.2,0.7,0.9,0.4,1.4l0,0C-373.7,318.9-374,319.1-374.4,319.1z
			 M-374.5,318.2c0,0,0.1,0,0.1,0c0.1,0,0.1-0.1,0.2-0.1c0-0.1,0-0.2-0.1-0.2l-2.4-1.2c-0.1,0-0.2,0-0.3,0.1c0,0,0,0.1,0,0.1
			c0,0,0,0.1,0.1,0.1L-374.5,318.2z"/>
		<path fill="#FFFFFF" d="M-354.2,319.1c-0.4,0-0.7-0.2-0.9-0.6c-0.3-0.5,0-1.1,0.5-1.4l2.4-1.2c0.5-0.2,1.1,0,1.4,0.5
			c0.3,0.5,0,1.1-0.5,1.4l-2.4,1.2C-353.9,319.1-354,319.1-354.2,319.1z M-351.8,316.7C-351.8,316.7-351.8,316.7-351.8,316.7
			l-2.5,1.2c-0.1,0-0.1,0.2-0.1,0.3c0,0.1,0.1,0.1,0.2,0.1l0.1,0l2.4-1.2c0.1,0,0.1-0.2,0.1-0.3
			C-351.6,316.7-351.7,316.7-351.8,316.7z"/>
		<path fill="#FFFFFF" d="M-359.2,338h-11.8v-9.6c-1.2-1.5-1.8-3.5-1.8-5.4c0-4.9,4-9,9-9c4.9,0,9,4,9,9v0.5l2.4,6l-3,0l0,5.5
			l-3.7,0V338z M-370.2,337.1h10.2v-3l3.7,0l0-5.5l2.6,0l-2-5V323c0-4.5-3.6-8.1-8.1-8.1c-4.5,0-8.1,3.6-8.1,8.1
			c0,1.8,0.6,3.6,1.8,5l0.1,0.1V337.1z M-364,324.6h-3.7c-0.9,0-1.7-0.7-1.7-1.6v-3.7c0-0.9,0.7-1.7,1.7-1.7h3.7
			c0.9,0,1.6,0.7,1.6,1.7v3.7C-362.3,323.9-363.1,324.6-364,324.6z M-367.6,318.5c-0.4,0-0.8,0.4-0.8,0.8v3.7c0,0.4,0.4,0.8,0.8,0.8
			h3.7c0.4,0,0.8-0.4,0.8-0.8v-3.7c0-0.4-0.4-0.8-0.8-0.8H-367.6z"/>
	</g>
	<path fill="#FFFFFF" d="M-359.7,326.6h-2.4c0-2.2,1.6-0.3,1.8-3.8c-0.4-0.2-0.6-0.6-0.6-1.1c0-0.7,0.6-1.2,1.2-1.2
		c0.7,0,1.2,0.6,1.2,1.2c0,0.4-0.2,0.8-0.6,1.1c0.2,3.6,1.8,1.6,1.8,3.8H-359.7z"/>
	<circle fill="#FFFFFF" cx="-367.3" cy="319.6" r="0.6"/>
	<circle fill="#FFFFFF" cx="-364.3" cy="322.6" r="0.6"/>
	<circle fill="#FFFFFF" cx="-365.8" cy="321.1" r="0.6"/>
</g>
<g>
	<g>
		<g>
			<path fill="#EC008C" d="M-364,281.1c-0.6,0-1-0.5-1-1v-3c0-0.6,0.5-1,1-1c0.6,0,1,0.5,1,1v3C-362.9,280.6-363.4,281.1-364,281.1z
				 M-364,276.8c-0.1,0-0.2,0.1-0.2,0.2v3c0,0.1,0.1,0.2,0.2,0.2c0.1,0,0.2-0.1,0.2-0.2v-3C-363.8,276.9-363.8,276.8-364,276.8z"/>
			<path fill="#EC008C" d="M-358.5,282.9c-0.1,0-0.4,0-0.6-0.2c-0.2-0.2-0.3-0.4-0.4-0.7c0-0.3,0-0.5,0.2-0.8l1.8-2.4
				c0.3-0.4,1-0.5,1.4-0.2c0.5,0.4,0.5,1,0.2,1.4l-1.9,2.5C-357.9,282.8-358.2,282.9-358.5,282.9z M-356.6,279.3
				c-0.1,0-0.1,0-0.2,0.1l-1.8,2.4c0,0,0,0.1,0,0.1c0,0.1,0,0.1,0.1,0.1l0,0c0,0,0,0,0.1,0c0,0,0.1,0,0.2-0.1l1.8-2.4
				c0.1-0.1,0-0.2,0-0.3C-356.5,279.3-356.6,279.3-356.6,279.3z"/>
			<path fill="#EC008C" d="M-370.1,282.9c-0.3,0-0.6-0.2-0.8-0.4l-1.9-2.4c-0.3-0.4-0.3-1.1,0.2-1.4c0.4-0.3,1.1-0.2,1.4,0.2
				l1.8,2.4c0.2,0.2,0.2,0.5,0.2,0.8c0,0.3-0.2,0.5-0.4,0.7C-369.7,282.8-369.9,282.9-370.1,282.9z M-371.9,279.3c0,0-0.1,0-0.1,0
				c-0.1,0.1-0.1,0.2,0,0.3l1.8,2.4c0,0,0.1,0.1,0.2,0.1c0,0,0.1,0,0.1,0c0,0,0-0.1,0.1-0.1c0,0,0-0.1,0-0.1l-1.8-2.4
				C-371.8,279.3-371.9,279.3-371.9,279.3z"/>
			<path fill="#EC008C" d="M-374.4,287.2c-0.2,0-0.3,0-0.4-0.1l-0.1,0l-2.4-1.2c-0.2-0.1-0.4-0.3-0.5-0.6c-0.1-0.3-0.1-0.5,0.1-0.8
				c0.2-0.3,0.5-0.6,0.9-0.6c0.2,0,0.3,0,0.5,0.1l2.4,1.2c0.5,0.2,0.7,0.9,0.4,1.4l0,0C-373.7,287-374,287.2-374.4,287.2z
				 M-374.5,286.3c0,0,0.1,0,0.1,0c0.1,0,0.1-0.1,0.2-0.1c0-0.1,0-0.2-0.1-0.2l-2.4-1.2c-0.1,0-0.2,0-0.3,0.1c0,0,0,0.1,0,0.1
				c0,0,0,0.1,0.1,0.1L-374.5,286.3z"/>
			<path fill="#EC008C" d="M-354.2,287.2c-0.4,0-0.7-0.2-0.9-0.6c-0.3-0.5,0-1.1,0.5-1.4l2.4-1.2c0.5-0.2,1.1,0,1.4,0.5
				c0.3,0.5,0,1.1-0.5,1.4l-2.4,1.2C-353.9,287.1-354,287.2-354.2,287.2z M-351.8,284.7C-351.8,284.7-351.8,284.7-351.8,284.7
				l-2.5,1.2c-0.1,0-0.1,0.2-0.1,0.3c0,0.1,0.1,0.1,0.2,0.1l0.1,0l2.4-1.2c0.1,0,0.1-0.2,0.1-0.3
				C-351.6,284.8-351.7,284.7-351.8,284.7z"/>
			<path fill="#EC008C" d="M-359.2,306.1h-11.8v-9.6c-1.2-1.5-1.8-3.5-1.8-5.4c0-4.9,4-9,9-9c4.9,0,9,4,9,9v0.5l2.4,6l-3,0l0,5.5
				l-3.7,0V306.1z M-370.2,305.2h10.2v-3l3.7,0l0-5.5l2.6,0l-2-5V291c0-4.5-3.6-8.1-8.1-8.1c-4.5,0-8.1,3.6-8.1,8.1
				c0,1.8,0.6,3.6,1.8,5l0.1,0.1V305.2z M-364,292.7h-3.7c-0.9,0-1.7-0.7-1.7-1.6v-3.7c0-0.9,0.7-1.7,1.7-1.7h3.7
				c0.9,0,1.6,0.7,1.6,1.7v3.7C-362.3,291.9-363.1,292.7-364,292.7z M-367.6,286.6c-0.4,0-0.8,0.4-0.8,0.8v3.7
				c0,0.4,0.4,0.8,0.8,0.8h3.7c0.4,0,0.8-0.4,0.8-0.8v-3.7c0-0.4-0.4-0.8-0.8-0.8H-367.6z"/>
		</g>
		<path fill="#EC008C" d="M-359.7,294.7h-2.4c0-2.2,1.6-0.3,1.8-3.8c-0.4-0.2-0.6-0.6-0.6-1.1c0-0.7,0.6-1.2,1.2-1.2
			c0.7,0,1.2,0.6,1.2,1.2c0,0.4-0.2,0.8-0.6,1.1c0.2,3.6,1.8,1.6,1.8,3.8H-359.7z"/>
		<circle fill="#EC008C" cx="-367.3" cy="287.7" r="0.6"/>
		<circle fill="#EC008C" cx="-364.3" cy="290.7" r="0.6"/>
		<circle fill="#EC008C" cx="-365.8" cy="289.2" r="0.6"/>
	</g>
</g>
</svg>
