<?xml version="1.0" encoding="utf-8"?>
<!-- Generator: Adobe Illustrator 18.1.1, SVG Export Plug-In . SVG Version: 6.00 Build 0)  -->
<svg version="1.1" id="Layer_1" xmlns:sketch="http://www.bohemiancoding.com/sketch/ns"
	 xmlns="http://www.w3.org/2000/svg" xmlns:xlink="http://www.w3.org/1999/xlink" x="0px" y="0px" viewBox="-379 275 32 64"
	 enable-background="new -379 275 32 64" xml:space="preserve">
<title>icon-1</title>
<desc>Created with Sketch.</desc>
<g>
	<path fill="#1A1A1A" d="M-361.7,286c-1.2,2.9-1.4,6.2-1.4,6.2s-0.2-3.3-1.4-6.2c-1.2-2.8-2.6-4.3-2.6-4.3v2.7v14.8h1.3v-13.1
		c0.5,0.7,1,1.5,1.3,2.4c1,2.5,1.4,4.8,1.4,4.8s0.4-2.2,1.4-4.8c0.4-0.9,0.9-1.7,1.3-2.4v13.1h1.3v-14.8v-2.7
		C-359,281.8-360.5,283.2-361.7,286"/>
	<path fill="#1A1A1A" d="M-359.4,286.3c-2.7,3.1-3.7,8.5-3.7,8.5s-1-5.4-3.7-8.5c-2.3-2.8-4.3-3.3-4.3-3.3v16.2h1.3v-13.6
		c0.9,0.5,2,1.4,3,2.7c2,2.9,3.7,7.3,3.7,7.3s1.7-4.4,3.7-7.3c0.9-1.3,2.1-2.2,3-2.7v13.6h1.3v-16.2
		C-355,283.1-357,283.6-359.4,286.3"/>
	<path fill="#1A1A1A" d="M-351,285.6c-0.1,0-3.1,0.1-6.5,3.1c-3.6,3.2-5.5,8.1-5.5,8.1s-1.9-4.9-5.5-8.1c-3.4-3-6.4-3.1-6.5-3.1l0,0
		v13.7h1.3v-11.8c0,0,2.2,0.5,5.2,2.9c3.2,2.6,5.5,7.1,5.5,7.1s2.4-4.5,5.5-7.1c3-2.4,5.2-2.9,5.2-2.9v11.8h1.3L-351,285.6
		L-351,285.6z"/>
	<path fill="#1A1A1A" d="M-355.7,292c-4.9,2.4-7.4,6.6-7.4,6.6s-2.5-4.2-7.4-6.6c-4.7-2.3-8.7-1.9-8.7-1.9v9.2h1.3v-7.6
		c0.4,0,4-0.1,7.3,1.7c4,2.1,7.4,5.9,7.4,5.9s3.4-3.8,7.4-5.9c3.3-1.8,7-1.7,7.3-1.7v7.6h1.3V290C-347,290-351,289.6-355.7,292"/>
</g>
<g>
	<path fill="#FFFFFF" d="M-361.6,316.2c-1.1,2.8-1.3,5.8-1.3,5.8s-0.1-3.1-1.3-5.8c-1.1-2.7-2.5-4-2.5-4v2.6v13.9h1.3v-12.3
		c0.4,0.6,0.9,1.4,1.3,2.3c0.9,2.4,1.3,4.5,1.3,4.5s0.3-2.1,1.3-4.5c0.3-0.8,0.8-1.6,1.3-2.3v12.3h1.3v-13.9v-2.6
		C-359.1,312.2-360.5,313.5-361.6,316.2"/>
	<path fill="#FFFFFF" d="M-359.4,316.5c-2.5,3-3.5,8-3.5,8s-1-5-3.5-8c-2.2-2.6-4.1-3.1-4.1-3.1v15.3h1.3v-12.8
		c0.8,0.5,1.9,1.3,2.8,2.6c1.9,2.7,3.5,6.9,3.5,6.9s1.6-4.2,3.5-6.9c0.9-1.3,2-2.1,2.8-2.6v12.8h1.3v-15.3
		C-355.3,313.4-357.2,313.9-359.4,316.5"/>
	<path fill="#FFFFFF" d="M-351.5,315.7c-0.1,0-2.9,0.1-6.1,2.9c-3.4,3-5.2,7.6-5.2,7.6s-1.8-4.6-5.2-7.6c-3.2-2.8-6-2.9-6.1-2.9l0,0
		v12.9h1.3v-11.1c0,0,2.1,0.5,4.9,2.8c3,2.4,5.2,6.7,5.2,6.7s2.2-4.3,5.2-6.7c2.8-2.3,4.9-2.8,4.9-2.8v11.1h1.3L-351.5,315.7
		L-351.5,315.7z"/>
	<path fill="#FFFFFF" d="M-355.9,321.8c-4.6,2.3-6.9,6.2-6.9,6.2s-2.4-3.9-6.9-6.2c-4.4-2.2-8.2-1.8-8.2-1.8v8.7h1.3v-7.2
		c0.3,0,3.8-0.1,6.9,1.6c3.8,2,7,5.6,7,5.6s3.2-3.6,7-5.6c3.1-1.7,6.6-1.6,6.9-1.6v7.2h1.3V320C-347.7,320-351.5,319.6-355.9,321.8"
		/>
</g>
</svg>
