<?xml version="1.0" encoding="utf-8"?>
<!-- Generator: Adobe Illustrator 18.1.1, SVG Export Plug-In . SVG Version: 6.00 Build 0)  -->
<svg version="1.1" id="Layer_1" xmlns:sketch="http://www.bohemiancoding.com/sketch/ns"
	 xmlns="http://www.w3.org/2000/svg" xmlns:xlink="http://www.w3.org/1999/xlink" x="0px" y="0px" viewBox="-379 276 32 62"
	 enable-background="new -379 276 32 62" xml:space="preserve">
<title>icon-2</title>
<desc>Created with Sketch.</desc>
<g>
	<g>
		<g>
			<path fill="#0083CA" d="M-354.9,305.8h-10.4v-7.3c-1.5-1.5-2.3-3.4-2.4-5.4l-9.1,0l0-17.1h16.5l0,8.5c0.3,0,0.5,0,0.8,0
				c4.2,0,7.7,3.1,8.2,7.2l2.3,6.2l-2.3,0l0,5.2l-0.4,0c0,0-1.5,0-3.2,0V305.8z M-364.6,305h8.9v-2.7h0.4c1.4,0,2.6,0,3.2,0l0-5.1
				l1.9,0l-2-5.3c-0.4-3.8-3.6-6.6-7.4-6.6c-0.4,0-0.8,0-1.1,0.1l-0.5,0.1l0-8.7h-15l0,15.5l9.1,0v0.4c0,2.1,0.8,4,2.3,5.4l0.1,0.1
				V305z M-361.4,295.6l-1.1-0.2c-3.3-0.6-4-2.8-4.1-3.3c0-0.1-0.1-0.2-0.2-0.2h-7.9c-0.3,0-0.6,0-0.6,0l-0.4,0l0-14.7l14.1,0
				l0,14.7l-1.6,0c-0.1,0-0.2,0.1-0.2,0.2c0,0.8,0.4,1.7,1.2,2.6L-361.4,295.6z M-374.9,291.1c0.1,0,0.2,0,0.2,0h7.9
				c0.5,0,0.9,0.3,1,0.8c0.1,0.3,0.5,1.7,2.4,2.4c-0.5-0.8-0.7-1.5-0.7-2.2c0-0.6,0.4-1,1-1l0.8,0l0-13.2l-12.6,0L-374.9,291.1z"/>
			<rect x="-368.6" y="279.4" fill="#0083CA" width="5.5" height="1.2"/>
			<rect x="-368.6" y="283.6" fill="#0083CA" width="5.5" height="1.2"/>
			<rect x="-368.6" y="287.9" fill="#0083CA" width="5.5" height="1.2"/>
			<path fill="#0083CA" d="M-372.2,281.8c-0.1,0-0.2,0-0.3-0.1l-1.2-0.6c-0.3-0.1-0.4-0.5-0.3-0.8c0.1-0.3,0.5-0.4,0.8-0.3l0.8,0.4
				l1.5-2c0.2-0.3,0.6-0.3,0.8-0.1c0.3,0.2,0.3,0.6,0.1,0.8l-1.8,2.4C-371.9,281.7-372,281.8-372.2,281.8z"/>
			<path fill="#0083CA" d="M-372.2,286c-0.1,0-0.2,0-0.3-0.1l-1.2-0.6c-0.3-0.1-0.4-0.5-0.3-0.8c0.1-0.3,0.5-0.4,0.8-0.3l0.8,0.4
				l1.5-2c0.2-0.3,0.6-0.3,0.8-0.1c0.3,0.2,0.3,0.6,0.1,0.8l-1.8,2.4C-371.9,285.9-372,286-372.2,286z"/>
			<path fill="#0083CA" d="M-371.1,288.8l0.5-0.5c0.2-0.2,0.2-0.6,0-0.8c-0.2-0.2-0.6-0.2-0.8,0l-0.5,0.5l-0.5-0.5
				c-0.2-0.2-0.6-0.2-0.8,0s-0.2,0.6,0,0.8l0.5,0.5l-0.5,0.5c-0.2,0.2-0.2,0.6,0,0.8c0.1,0.1,0.3,0.2,0.4,0.2c0.2,0,0.3-0.1,0.4-0.2
				l0.5-0.5l0.5,0.5c0.1,0.1,0.3,0.2,0.4,0.2c0.2,0,0.3-0.1,0.4-0.2c0.2-0.2,0.2-0.6,0-0.8L-371.1,288.8z"/>
		</g>
		<path fill="#0083CA" d="M-354.4,293.9c-0.5,0-0.9-0.4-0.9-0.9s0.4-0.9,0.9-0.9s0.9,0.4,0.9,0.9
			C-353.4,293.5-353.8,293.9-354.4,293.9z"/>
	</g>
</g>
<g>
	<g>
		<path fill="#FFFFFF" d="M-354.9,337.9h-10.4v-7.3c-1.5-1.5-2.3-3.4-2.4-5.4l-9.1,0l0-17.1h16.5l0,8.5c0.3,0,0.5,0,0.8,0
			c4.2,0,7.7,3.1,8.2,7.2l2.3,6.2l-2.3,0l0,5.2l-0.4,0c0,0-1.5,0-3.2,0V337.9z M-364.6,337.1h8.9v-2.7h0.4c1.4,0,2.6,0,3.2,0l0-5.1
			l1.9,0l-2-5.3c-0.4-3.8-3.6-6.6-7.4-6.6c-0.4,0-0.8,0-1.1,0.1l-0.5,0.1l0-8.7h-15l0,15.5l9.1,0v0.4c0,2.1,0.8,4,2.3,5.4l0.1,0.1
			V337.1z M-361.4,327.6l-1.1-0.2c-3.3-0.6-4-2.8-4.1-3.3c0-0.1-0.1-0.2-0.2-0.2h-7.9c-0.3,0-0.6,0-0.6,0l-0.4,0l0-14.7l14.1,0
			l0,14.7l-1.6,0c-0.1,0-0.2,0.1-0.2,0.2c0,0.8,0.4,1.7,1.2,2.6L-361.4,327.6z M-374.9,323.2c0.1,0,0.2,0,0.2,0h7.9
			c0.5,0,0.9,0.3,1,0.8c0.1,0.3,0.5,1.7,2.4,2.4c-0.5-0.8-0.7-1.5-0.7-2.2c0-0.6,0.4-1,1-1l0.8,0l0-13.2l-12.6,0L-374.9,323.2z"/>
		<rect x="-368.6" y="311.5" fill="#FFFFFF" width="5.5" height="1.2"/>
		<rect x="-368.6" y="315.7" fill="#FFFFFF" width="5.5" height="1.2"/>
		<rect x="-368.6" y="320" fill="#FFFFFF" width="5.5" height="1.2"/>
		<path fill="#FFFFFF" d="M-372.2,313.9c-0.1,0-0.2,0-0.3-0.1l-1.2-0.6c-0.3-0.1-0.4-0.5-0.3-0.8c0.1-0.3,0.5-0.4,0.8-0.3l0.8,0.4
			l1.5-2c0.2-0.3,0.6-0.3,0.8-0.1c0.3,0.2,0.3,0.6,0.1,0.8l-1.8,2.4C-371.9,313.8-372,313.9-372.2,313.9z"/>
		<path fill="#FFFFFF" d="M-372.2,318.1c-0.1,0-0.2,0-0.3-0.1l-1.2-0.6c-0.3-0.1-0.4-0.5-0.3-0.8s0.5-0.4,0.8-0.3l0.8,0.4l1.5-2
			c0.2-0.3,0.6-0.3,0.8-0.1c0.3,0.2,0.3,0.6,0.1,0.8l-1.8,2.4C-371.9,318-372,318.1-372.2,318.1z"/>
		<path fill="#FFFFFF" d="M-371.1,320.9l0.5-0.5c0.2-0.2,0.2-0.6,0-0.8c-0.2-0.2-0.6-0.2-0.8,0l-0.5,0.5l-0.5-0.5
			c-0.2-0.2-0.6-0.2-0.8,0s-0.2,0.6,0,0.8l0.5,0.5l-0.5,0.5c-0.2,0.2-0.2,0.6,0,0.8c0.1,0.1,0.3,0.2,0.4,0.2c0.2,0,0.3-0.1,0.4-0.2
			l0.5-0.5l0.5,0.5c0.1,0.1,0.3,0.2,0.4,0.2c0.2,0,0.3-0.1,0.4-0.2c0.2-0.2,0.2-0.6,0-0.8L-371.1,320.9z"/>
	</g>
	<path fill="#FFFFFF" d="M-354.4,326c-0.5,0-0.9-0.4-0.9-0.9s0.4-0.9,0.9-0.9s0.9,0.4,0.9,0.9C-353.4,325.6-353.8,326-354.4,326z"/>
</g>
</svg>
